<svg id="图层_1" data-name="图层 1" xmlns="http://www.w3.org/2000/svg" xmlns:xlink="http://www.w3.org/1999/xlink" viewBox="0 0 1366 768"><defs><style>.cls-1{fill:none;}.cls-2{clip-path:url(#clip-path);}</style><clipPath id="clip-path"><rect class="cls-1" width="1366" height="768"/></clipPath></defs><g class="cls-2"><path d="M533.52,694.61H61.43c-1.19,0-2.38.09-3.57.12a6.83,6.83,0,0,1-6.51-3.84,7.82,7.82,0,0,1,.29-8q6-10.57,11.93-21.16c7.91-14.09,16-28,23.59-42.35,3.11-5.88,6.75-7.93,13-7.89,53.61.3,107.22.18,160.83.2q169.61.06,339.21.13,124.75,0,249.52,0c13.75,0,27.51-.1,41.26.07,2.24,0,2.71-1.15,3.3-2.9q10.61-31.29,21.27-62.56,10.25-30.1,20.51-60.22,16.74-49.26,33.48-98.53c7.07-20.74,14.25-41.43,21.3-62.17q18.67-54.92,37.23-109.87c3-8.87,6-17.77,9.07-26.59a12.76,12.76,0,0,1,3-4.84c14-13.12,28.06-26,42-39.2a18.13,18.13,0,0,1,10.68-5.07,254,254,0,0,1,56.74-1.33c30.75,2.7,60.18,11.25,87.61,26.73a388.14,388.14,0,0,1,39.46,25.9c12,8.88,22,20.41,30.7,33.26,18.92,28,30.92,59.32,37.93,93,6.75,32.41,6.62,65.08,1,97.76-4.8,28-13.68,54.45-24.65,80.21-10,23.36-24.16,43.41-39.34,62.76a319.07,319.07,0,0,1-54.44,54.09,342.1,342.1,0,0,1-62.55,38.86c-23.32,11.29-47.35,20.41-72.23,26.4-18.89,4.54-37.16,8.64-57,11.72-19.14,3-37.86,5.48-57.08,5.46q-222.73-.24-445.46-.09Zm689.32-417.4c2.71,3.77,5.14,7.08,7.51,10.45a174.89,174.89,0,0,1,26.94,58.28,173.09,173.09,0,0,1,3.83,64.79c-1.44,11.2-3.29,22.56-6.68,33.18-5,15.68-13.07,29.83-21.8,43.46a220.58,220.58,0,0,1-68.21,67.77c-13.9,8.83-28.68,16-43.13,23.76-14.71,7.89-30,14.53-45.88,18.56-20.1,5.11-40.53,8.82-60.94,12.24-16.7,2.79-33.5,1-50.15-1.66-5.11-.82-6.23-2.95-4.5-8.42,1.86-5.92,4.06-11.72,6.1-17.57l26.58-76.32,38.94-111.84q13.63-39.17,27.26-78.33c8-22.78,16.14-45.46,23.8-68.36,1.78-5.33,4.37-7.78,9.27-9.33,39.52-12.46,76-5,110,19.45,6.36,4.58,12.16,10.08,18.54,15.42l58.27-60.35a6.73,6.73,0,0,0-.72-1.3c-2.4-2.21-4.72-4.53-7.24-6.55-20.49-16.4-42.58-29.39-66.65-38.41-35.29-13.22-71.4-16.59-108.27-11.6a8.88,8.88,0,0,0-4.68,2q-19.9,18.25-39.6,36.79a10.87,10.87,0,0,0-2.79,4.21c-6.26,18.29-12.38,36.64-18.6,54.95Q1010,311.53,989.86,370.59c-7.6,22.29-15.29,44.55-22.85,66.86-9.68,28.52-19.24,57.09-28.91,85.61q-16.67,49.1-33.41,98.14c-1.33,3.93-3.84,5.8-7.69,5.66-1.41-.05-2.81-.12-4.22-.12q-130.6-.09-261.23-.16l-462.67-.14c-22.31,0-44.62,0-66.93.06a4.44,4.44,0,0,0-3.4,1.61c-4,6.62-7.78,13.39-11.59,20.14a36.1,36.1,0,0,0-1.52,3.62c21.15,0,41.72,0,62.29-.07a4.78,4.78,0,0,0,3.3-1.72,73.28,73.28,0,0,0,6.58-9.65c2.31-4.28,5-5.83,9.87-5.77,37.9.49,75.81.49,113.71.74a5.53,5.53,0,0,1,3.85,1.34c1.61,2,.64,4.17-.46,5.79-1.32,1.94-2.29,4.08-3.82,6.72h7.64Q444.19,649,600,648.77c48.2-.06,96.39,0,144.59,0s96.17-.1,144.26-.07a5.17,5.17,0,0,1,3.84,1.55c.45.61-.39,2.8-1.09,4-4.08,6.7-8.3,13.3-12.44,20-.87,1.41-1.59,2.92-2.69,4.94,6.07,0,11.46.06,16.84-.06a3.15,3.15,0,0,0,2.28-1.41c4.75-8.43,9.37-17,14.1-25.41,1.45-2.58,2.74-5.74,6-5.75,5.29,0,10.58.32,15.86.64a3.64,3.64,0,0,1,2.59,1.18c5.54,7.91,6.4,16.07-3.77,20.37-2.07.88-4.19,1.58-6.27,2.36,1.87,7,3.86,8.64,9.85,8.64,9.43,0,18.85,0,28.27,0a630.53,630.53,0,0,0,73.35-5.25c20.35-2.53,35.16-6.77,52.62-10.77,21.54-4.93,42.34-12.69,62.68-21.82a328.39,328.39,0,0,0,69.79-42,306.63,306.63,0,0,0,49.14-48.39c15-18.62,29-38,38.84-60.57,11.25-25.76,20.14-52.32,24.72-80.52q11.49-70.86-15.52-136.43c-7-17-15.56-33-26.67-47.3-2.85-3.66-5.89-7.16-9-10.91-20,20.71-39.57,41.06-59.37,61.59M1059.49,579.48c14.27-.23,29.9-2.47,44.82-8.72a237.27,237.27,0,0,0,21.27-10.53c11.63-6.3,23.47-12.25,34.59-19.51a206.4,206.4,0,0,0,57.2-55.57c9.6-13.85,18.63-28.32,23.73-44.7,11.72-37.61,11.16-75.31-3.94-111.86-10.6-25.66-25.57-47.73-48.1-62.61-27.09-17.88-56-23.73-87-15.89-4.82,1.22-7.38,3.87-9,8.79-7.58,22.3-15.36,44.52-23.11,66.75-7,20.13-14.11,40.22-21.13,60.35q-16.61,47.63-33.15,95.25-11.62,33.34-23.31,66.65c-1.8,5.16-.82,12.21,2.44,14.88a38.69,38.69,0,0,0,9.15,5.92c17.35,7.33,35.42,10.59,55.63,10.8M871.4,672c-1.27-.07-2.23-.16-3.19-.16q-160.17.71-320.33,1.43c-31.37.15-62.73.52-94.09.75q-28.87.22-57.76.3c-9.85,0-19.7-.1-29.54-.14-21.43-.08-42.85-.21-64.28-.21q-43.36,0-86.72.16-69.86.2-139.7.35c-3.58,0-5,1.79-5.81,5.32h5.75l258.62-.11q117.93,0,235.87-.1,60.1,0,120.2-.15c33.46,0,66.92.13,100.37.07,23.6,0,47.19-.57,70.78-.28,5.28.07,8-1.9,9.83-7.23m-599.92-7.88h5.07q39.79,0,79.59,0l447-.38c4.53,0,5.74-1.07,6.5-6-1.3-.07-2.58-.21-3.85-.21l-526.48.68c-3.83,0-6.58.92-7.86,5.91M149.54,663c.13.34.27.68.41,1,6.23,0,12.47,0,18.71-.06.57,0,1.24-.77,1.68-1.35q4.86-6.42,9.62-12.92c1.7-2.31,3.34-4.67,5-7l-.46-1c-6.15,0-12.29,0-18.44.06a3.72,3.72,0,0,0-2.45,1.39c-2.66,3.36-5.25,6.78-7.73,10.3-2.21,3.12-4.24,6.39-6.34,9.59m59.37-19.86c-.15-.34-.29-.68-.43-1-4.19,0-8.39.2-12.56-.07-2.6-.17-4.18.91-5.73,3-3.83,5.25-7.88,10.31-11.79,15.49a24.2,24.2,0,0,0-1.71,3.54c4.89,0,9.09.21,13.26-.11a7.32,7.32,0,0,0,4.66-2.28c3.62-4.21,6.93-8.73,10.33-13.16,1.36-1.77,2.65-3.61,4-5.42m-7.59,20,.45,1c4.61,0,9.23.1,13.84-.08.88,0,1.87-1,2.55-1.82,3.61-4.34,7.19-8.71,10.68-13.16,1.42-1.82,2.58-3.88,3.85-5.83l-.3-1.21c-5,0-10,0-15,.07-.55,0-1.15.93-1.61,1.53q-5.87,7.62-11.67,15.29c-1,1.33-1.84,2.8-2.75,4.21m-57.63-4.83c-11.56,0-22.63,0-33.71,0-8,0-16,.32-24,.11-4.75-.13-5.52.1-6.93,5.1a3.14,3.14,0,0,0,.91.3q29.35.11,58.71.16c2.79,0,4.29-1.75,5-5.67m110.73-14c-.13-.48-.26-1-.4-1.42-3.32,0-6.65,0-10,0-2,0-3.84-.13-5.34,2.17-3.55,5.44-7.46,10.59-11.2,15.88-.55.77-1,1.65-1.84,3.14,4.74,0,8.8.14,12.83-.1.91-.06,1.89-1.3,2.6-2.21,1.52-2,2.81-4.11,4.32-6.07,3-3.84,6-7.59,9-11.38m20.5-1.33c-4.86-.08-6.9,0-10.45.06-1.27,0-3,.34-3.75,1.27-3.11,3.89-6,8-8.86,12.13-1.6,2.24-3.15,4.52-4.73,6.78.12.33.25.65.37,1,3.42,0,5.88.27,10.25.06,3.29-.16,5-1.94,6.72-4.35,1.83-2.62,3.4-5.39,5.1-8.09,1.49-2.39,2.94-4.8,4.83-7.88m646.08,35.77c-1.47-3.78-2.75-6.87-3.87-10-1.53-4.28-.43-5.65,3.68-6.23a29.28,29.28,0,0,0,8.49-2.83c2.08-1,1.76-3.18.44-4.75-2.42-2.86-12.72-1.89-14.64,1.4-3,5.18-5.85,10.48-8.74,15.75-1.12,2-2.16,4.15-3.24,6.22l.79.61a19.57,19.57,0,0,0,2.07-2.68c1-1.94,1.9-4,2.81-6,.76-1.68,1.36-4,3.63-2.88,2.47,1.21,1.09,3.4.45,5.17-.75,2-1.65,4-2.59,6.22Z"/><path d="M708,374.78c7.23,9.57,14,18.52,20.71,27.44Q761.84,446,795,489.8q38.07,50.37,76.11,100.79c1.17,1.55,2.66,2.92,3.46,4.67,2.57,5.58-1,11.07-7,10.89-17.53-.52-35.07-1.13-52.6-1.71-16-.53-32-1.13-48.06-1.59-3.29-.1-5.39-1.68-7-4.7Q739.5,560.79,719,523.47q-18.74-34.31-37.45-68.63c-3.65-6.68-7.33-13.34-11.36-20.69-2.51,10.11-4.79,19.44-7.15,28.75q-12,47.22-23.93,94.44-4.93,19.5-9.77,39c-1.23,5-3.41,6.84-8.08,7L519,605.66c-2.14,0-4.38.3-6.39-.29-4.07-1.19-5.89-5.53-4.37-9.81,8.13-22.83,16.35-45.62,24.42-68.48,9.28-26.28,18.39-52.62,27.66-78.9,8.07-22.86,16.28-45.67,24.37-68.52q20-56.45,39.94-112.93,12.71-35.94,25.38-71.89c3.93-11.14,7.8-22.29,11.88-34-1.47-.1-2.58-.23-3.7-.25L512.3,157.87,310.58,154c-12.24-.23-24.47-.59-36.71-.63-5,0-8.09-2.77-11.21-6.6-9.91-12.18-11.26-27.22-12.51-42.4C249,90.57,247.94,76.76,246.33,63c-.45-3.81-2.58-7.42-4.15-11-1.5-3.4-3.51-6.55-4.84-10a11,11,0,0,1-.32-5.8c1.26-6.23,2.82-12.39,4.3-18.57C242.6,12.3,245,10.4,250.05,11c17.75,2.09,35.49,4.28,53.24,6.42,19.47,2.35,38.95,4.65,58.42,7,20.87,2.52,41.73,5.11,62.6,7.6,19,2.27,38.1,4.4,57.15,6.66,24.31,2.87,48.62,5.83,72.94,8.71C578.18,50.22,602,53,625.76,55.8c21.62,2.58,43.24,5.26,64.86,7.84q29.7,3.56,59.42,7c3.76.44,7.54.83,11.29,1.39,4.91.74,7.42,5.78,5.57,10.44-3.48,8.78-6.89,17.6-10.08,26.51-4.27,11.9-8.31,23.9-12.44,35.86l-32,92.67a96,96,0,0,0-3.88,12.93c1.47-1.07,3-2.11,4.41-3.22q32-24.64,64-49.31,35.18-27.07,70.39-54.1Q878.23,120,909.09,96.06c22.47-17.32,45.13-34.34,67.36-52,6.11-4.85,12.12-7.07,19.6-7.07,15.16,0,30.31-.86,45.47-1.36.86,0,1.73,0,2.59,0a6.42,6.42,0,0,1,6.86,4.74c1.09,3.17.21,6.24-2.52,8.83-9.08,8.62-18.17,17.21-27.21,25.87q-46,44.14-92,88.33-38.43,36.9-76.85,73.83-45.89,44.06-91.83,88.05-25.39,24.33-50.85,48.61a7.93,7.93,0,0,1-1.68.93M816.54,557.52c-7.28-9.47-14-18.3-20.84-27.07s-14-17.67-20.84-26.58Q760.66,485.5,746.58,467q-11.64-15.23-23.25-30.48Q713,423,702.71,409.64c-5.37-6.94-10.91-13.73-16.16-20.77-1.16-1.56-3.88-3.71-1.32-6s3.88,1.05,5.11,2.61q25.93,33.19,51.7,66.55,24.74,32,49.36,64.05,17.07,22.1,34.21,44.13c4.48,5.74,9.29,11.16,13.77,16.89,2.87,3.66,5.44,7.59,8.1,11.44,1.41,2,3.14,2.67,5.68,1.71-2-2.68-3.83-5.24-5.73-7.75l-42.64-56.39Q755,460.3,705.27,394.42c-3.48-4.61-7.36-9.33-9.32-14.74-3.36-9.29-5.28-19.19-8-28.78-.63-2.24-.09-3.4,1.45-4.8q20-18.08,39.94-36.34,40.7-37.29,81.33-74.65,38.19-35,76.44-70,31.36-28.74,62.7-57.52l47-43.16c4.42-4.07,8.82-8.17,13.23-12.25-10.76-.17-21.8-2.54-30.15,7.46a9.1,9.1,0,0,1-1.58,1.24q-51.26,39.44-102.51,78.87-37.17,28.62-74.3,57.3-51.62,39.81-103.25,79.6c-3.49,2.69-6.25,2.87-8.93.66s-3.34-5.56-1.85-9.9q8.85-25.56,17.67-51.15Q726.39,155,747.63,93.78c.88-2.52,1.51-5.13,2.37-8.08-1.71-.28-3.17-.59-4.65-.77-7-.84-14-1.65-21-2.48q-41-4.86-82-9.72c-21.2-2.5-42.41-4.93-63.61-7.45-20.66-2.46-41.3-5-62-7.48-26.9-3.19-53.81-6.29-80.71-9.5q-45.51-5.43-91-11-32.6-3.93-65.19-7.81-12.26-1.46-24.55-2.6a2.94,2.94,0,0,0-2.44,1.48c-.91,2.7-1.45,5.56-2.17,8.55,1.19.22,1.92.4,2.66.48q23.71,2.84,47.44,5.63,39.22,4.61,78.44,9.21,40.51,4.79,81,9.77a2.11,2.11,0,0,1,.67.22,2.29,2.29,0,0,1-.48,4.23,1.73,1.73,0,0,1-.64,0q-27.3-2.86-54.59-6.09c-21-2.46-41.94-5.07-62.92-7.56q-30-3.55-60.06-7c-7.79-.91-15.6-1.78-23.4-2.66a18.5,18.5,0,0,0,5,6c6.35,4.76,9.78,11.64,11.79,19.42a161.47,161.47,0,0,1,4,56c-.36,3.83-.66,7.66-1.07,12.39,4.21.25,7.88.54,11.56.66,17.31.6,34.61,1.11,51.91,1.75,2.41.09,3.28-.7,3.17-3.4-.32-7.93-.42-15.87-.64-23.81q-.5-17.76-1-35.53c-.09-2.72.34-4.78,3.48-4.45,7,.74,14,1.29,20.95,2.22,11.05,1.48,22.05,3.3,33.1,4.78,6.11.81,12.29,1,18.41,1.84,15.45,2,30.87,4.31,46.32,6.32,11.16,1.46,22.36,2.58,33.53,4,24.91,3.14,49.81,6.4,74.72,9.54,10.41,1.31,20.86,2.38,31.27,3.77a1.56,1.56,0,0,1,.73.34,2.82,2.82,0,0,1-.18,4.49,1.23,1.23,0,0,1-.72.25c-7-.15-14-.28-21-1.07-15-1.72-29.9-3.86-44.85-5.78-14.27-1.84-28.55-3.56-42.82-5.46-18.47-2.46-36.91-5.21-55.4-7.55-29.13-3.69-58.3-7.15-87.45-10.69-5.1-.62-5.18-.58-4.9,5.23.61,13,1.3,26,2,39,.22,4.13.65,8.24.82,12.37.13,3,1.44,4,4.13,4.06,12.34.25,24.68.78,37,1q94.37,1.82,188.73,3.53,45,.82,90,1.54c5.13.09,8.1,4.55,6.64,9.93-.37,1.36-.86,2.68-1.32,4L650.28,235l-25.85,73.22-26.07,73.86q-19.89,56.33-39.77,112.63-16.05,45.38-32.14,90.71c-.56,1.57-1.05,3.17-1.69,5.11,2.45,0,4.39-.09,6.32,0,2.26.13,3.38-.79,4.24-3.25,8.79-25.33,17.75-50.59,26.63-75.88q14.53-41.45,29-82.9c8.25-23.66,16.4-47.37,24.64-71q18.15-52.1,36.35-104.14c5.64-16.14,11.37-32.25,17-48.4,4.36-12.61,8.89-25.27,13.25-37.87,1.33-3.87,2.44-6.53,4-10.54.07-.18.13-.37.29-.73.57-1.34,2.1-1.17,2.89-.8a1.91,1.91,0,0,1,1.23,2.51,18.36,18.36,0,0,1-.62,2q-6.43,18.6-12.88,37.19-13.37,38.3-26.76,76.58L611.48,384.47,571.79,498.23q-13.65,39.15-27.29,78.3c-1.52,4.36-2.9,8.78-4.54,13.78,2.13,0,3.72,0,5.31,0,22.63-.58,45.25-1.26,67.88-1.66,3.34-.06,4.58-1.21,5.43-4.65q10.13-41.32,20.58-82.54Q650,458.52,660.91,415.6c.89-3.52,2.27-6.51,5.89-7.18,3.79-.7,6,1.7,7.79,5Q689.44,440.75,704.4,468q23.8,43.39,47.62,86.8a4.84,4.84,0,0,0,4.9,3c18.63-.07,37.26,0,55.89,0,1,0,1.9-.13,3.73-.26m14,18.11c-2.54-3.42-4.28-6.28-6.5-8.59-1.34-1.41-3.4-2.74-5.16-2.8-19.79-.59-39.58-.94-59.37-1.32a17.39,17.39,0,0,0-2.81.45c2,3.59,3.88,6.62,5.41,9.85,1.13,2.38,2.68,3,5,3,19.59-.08,39.18-.06,58.77-.1,1.25,0,2.5-.24,4.69-.46M754.56,293.08c.14.3.27.6.4.89,4.64,0,9.29-.14,13.92.06a8.06,8.06,0,0,0,6.38-2.64q18.45-17.89,37.06-35.62a13.49,13.49,0,0,1,2.15-1.49l-.4-1.32c-4.53,0-9.07-.1-13.61.06a7.73,7.73,0,0,0-4.17,1.72c-10.79,9.75-21.49,19.61-32.21,29.46-3.19,2.93-6.35,5.92-9.52,8.88M257.34,60.36c-.32,2.32-.9,4.09-.74,5.78,1.75,18.47,3.52,37,5.51,55.4.34,3.1,1.62,6.11,2.7,9.06.29.78,1.46,1.16,2.23,1.73a8.23,8.23,0,0,0,1.29-2.56c.52-4.81,1.32-9.65,1.22-14.46A211,211,0,0,0,268,90.92a187.69,187.69,0,0,0-4.93-22.33c-.81-3-2.19-6.13-5.71-8.23M841,589.75l.76-.81c-2.43-2.08-4.62-5.28-7.35-6-4.88-1.27-10.07-1.34-15.14-1.4-16.76-.2-33.52-.18-50.28-.24a13.94,13.94,0,0,0-1.72.22c1.18,5.21,3.82,7,8.64,7,14.16,0,28.31.86,42.47,1.2,7.54.19,15.08,0,22.62,0M849.54,206c.1.25.21.49.31.73,3.34,0,6.68-.14,10,.05a8.37,8.37,0,0,0,6.65-2.83c8.36-8.21,16.86-16.25,25.3-24.36,3.28-3.15,6.54-6.34,9.81-9.51a50.15,50.15,0,0,0-11.52-.7,4.15,4.15,0,0,0-2.19,1.35c-5.73,5.22-11.41,10.48-17.11,15.72L849.54,206M965,109.26c-5.35-1.31-9.19-.85-11.37,1.16q-9.39,8.68-18.8,17.34c-2.16,2-4.3,4-7.18,6.73,3.25,0,5.48-.13,7.7,0a6.75,6.75,0,0,0,6-2.42c2.95-3.26,6.33-6.06,9.48-9.1,4.68-4.5,9.32-9,14.13-13.74M1025,51.65c-5.61-1-6.41-.8-9.94,2.47-1.65,1.53-3.32,3-5,4.54l-14,12.87.32,1c2.69-.35,6.13.33,8-1.24,7-6,13.51-12.76,20.58-19.61M699.4,364l13.16-12.73h-19L699.4,364"/><path d="M495.41,459.08c-5.63-2.05-11-4-16.45-6q-48.1-17.28-96.23-34.56A7.82,7.82,0,0,1,377.3,413c-2.43-9.21-5-18.39-7.17-27.67a8.74,8.74,0,0,1,1-5.64q16.75-29.39,33.87-58.53a10,10,0,0,1,5.66-3.95c5-1.36,10.24-1.9,15.31-3.1a6.91,6.91,0,0,1,6.85,2q27.12,25.69,54.23,51.4,33.54,31.69,67.2,63.23c2.39,2.24,1.81,4.13.78,6.5q-9.74,22.28-19.43,44.56-18.93,43.62-37.83,87.26c-3.94,9.09-7.81,18.21-11.75,27.31-1.51,3.48-3.81,5.39-7.61,5.39q-91.95,0-183.9.26c-7.86,0-15.71.7-23.56,1.2a8.61,8.61,0,0,1-7.79-3.44c-10.37-12.86-20.85-25.62-31.14-38.56s-20.26-25.93-30.45-38.83a9.28,9.28,0,0,1-1.81-9.14q17.77-58.49,35.46-117Q252,341,268.68,285.71c4.05-13.37,8.23-26.7,12-40.17,1.45-5.16,3.87-7.63,8.94-8.49,21.92-3.7,43.76-7.94,65.65-11.88q58.77-10.6,117.57-21.1c12.38-2.23,24.75-4.58,37.11-6.91,5.32-1,8.46,1.33,9,7.19.84,9,1.49,17.92,2.22,26.88a13.08,13.08,0,0,0,.19,1.4c1.07,5.71.07,8.07-4.74,10.44Q499.35,251.61,482,260q-36.48,17.78-73,35.52Q362,318.35,314.87,341a6.48,6.48,0,0,0-3.65,4.51q-14,48.95-28.16,97.85c-4.19,14.56-8.24,29.17-12.63,43.66-1.51,5-1.09,8.88,1.87,13.36,8.44,12.75,16.69,25.7,24.18,39.12,2.61,4.68,5.25,5.45,9.57,5.44q72.94-.19,145.89,0a4.58,4.58,0,0,0,4.81-3q18.84-40.32,37.81-80.57c.28-.6.48-1.25.85-2.22M456.55,585.77l.6,1.09c5,0,9.93-.12,14.9.06,2.29.08,3.43-.82,4.41-3.1q14.94-34.89,30.08-69.68,16.06-37,32.28-74c1.09-2.48.55-3.67-1.18-5.27-8.59-7.94-17.1-16-25.62-24-26.95-25.47-54.1-50.69-80.64-76.66-5.13-5-9.62-4.24-14.92-3.16a4.36,4.36,0,0,0-2.42,2q-14.35,24.74-28.54,49.6a7.72,7.72,0,0,0-.69,4.86c1,5,2.5,9.81,3.68,14.73a5,5,0,0,0,3.53,4.07c7,2.38,14,5,21,7.48q46.88,16.85,93.75,33.7c5,1.79,6.67,6.47,4.24,11.56-1.75,3.68-3.55,7.32-5.28,11Q491.36,500.48,477.05,531c-3.65,7.79-7.29,15.59-10.74,23.49-1.55,3.56-3.5,5.32-7.19,5.36-1.62,0-3.25-.1-4.87-.1H299c-1.74,0-3.48.11-5.2,0-4.13-.34-6.41-3.07-6.65-7.6a7.4,7.4,0,0,0-.86-3.24c-2.05-3.49-4.24-6.87-6.39-10.29q-11.48-18.3-23-36.6c-1.87-3-3-6-2-9.63q7.82-27.29,15.58-54.57c9.75-34,19.48-68,29.41-101.89a11.37,11.37,0,0,1,4.54-5.57c2.83-1.89,6.13-2.93,9.19-4.42q46.42-22.61,92.83-45.24,31.73-15.47,63.45-31c11.67-5.68,23.37-11.26,35-17,1.13-.57,2.67-2.15,2.63-3.19-.18-5.29-.83-10.56-1.34-16.09a25.57,25.57,0,0,0-3.12.17q-37.63,6.74-75.26,13.51Q362.16,238.9,296.5,250.75c-2.36.43-3.5,1.39-4.25,3.9q-11.92,40-24.07,79.91-6.36,21.07-12.72,42.14-13.28,43.82-26.55,87.63-7.14,23.6-14.35,47.17a5.78,5.78,0,0,0,1,6c11.55,14.59,22.94,29.34,34.43,44,6.42,8.17,12.86,16.33,19.45,24.33,3.37,4.09,7.63,3.71,10.58-.66,2.64-3.9,5.32-7.78,7.67-11.89,1.4-2.45,3.06-3.1,5.58-3.09q84.81.09,169.6.08c1.49,0,3,.68,5.18,1.21l-11.52,14.29m-53.23-9.7c-.6-.38-.77-.59-.95-.59q-27.08-.13-54.15-.2a3.21,3.21,0,0,0-2.29.91c-2.75,3.3-5.36,6.73-8.23,10.39a9.62,9.62,0,0,0,1.93.52q27.24,0,54.48-.14a3.2,3.2,0,0,0,2.36-.77c2.37-3.28,4.57-6.7,6.85-10.12"/><path d="M885.64,584.7s1.85-1.53-.7-4.3c-7.44-8-13.6-17.19-20.35-25.83q-35.77-45.74-71.51-91.52-31.26-39.93-62.63-79.77c-1.67-2.12-1.83-3.33.34-5.37q28.05-26.42,55.87-53.1c16.54-15.81,33-31.72,49.55-47.54q29-27.72,58-55.36,24-22.89,47.87-45.84C959.57,159.3,973.54,146,991,129.14c.27-.26,3.76-3.83,4-4.2,1.06-1.64-1.21-4.1-2.94-3a1.28,1.28,0,0,0-.26.2c-6.17,5.58-12.16,11.4-18.18,17.17q-31.89,30.52-63.76,61.06Q873.64,235,837.41,269.48q-32.38,31-64.71,62-23.94,22.92-48,45.69c-1.92,1.82-2.41,3.18-.56,5.53q37,47.13,74,94.38,21.54,27.51,43.09,55c13.65,17.45,26.35,35.7,41,52.36,1.52,1.73,3.5.2,3.5.2"/><path d="M926.15,434.55c-1.15-.46-1.6-1.61-1-3,4-9.36,6.58-19.28,9.91-28.9q16.32-47.1,32.7-94.18c.7-2,1.69-5.07,3.86-4.49,2.65.71,1,4.28.29,6.3q-15.87,46-31.92,91.84c-3.54,10.16-10.15,29.15-10.63,30.48a2.66,2.66,0,0,1-3.22,2"/><path d="M928.22,291.09c-1.11,3.45-1.72,5.58-2.77,8.56q-12.24,34.78-24.51,69.55C895.59,384.45,890.33,399.73,885,415a7.17,7.17,0,0,1-.93,2.22,2.07,2.07,0,0,1-2.59.71,2.17,2.17,0,0,1-1.42-2.41,53.5,53.5,0,0,1,1.89-5.65q20.43-58.33,40.86-116.67a36.37,36.37,0,0,1,1.58-3.87,1.94,1.94,0,0,1,2.6-1,1.77,1.77,0,0,1,1.42,2.08"/><path d="M950.64,296.76a2.37,2.37,0,0,0-1.6-.14,2.34,2.34,0,0,0-1.5,1.19,13.09,13.09,0,0,0-1.07,2.53Q935.09,333,923.73,365.72L904,422.46c-.59,1.7-1.11,3.56.77,4.2,1.54.53,2.85-.65,3.44-2.35,1.89-5.54,3.72-11.11,5.65-16.63,12.27-35.16,24.31-70.07,36.59-105.23l.85-2.64c.38-1.16.44-2.64-.64-3.05"/><path d="M1067.13,125.53a2.21,2.21,0,0,0-3.32-2.73l0,0c-5.92,5.17-11.75,10.46-17.58,15.74q-12.75,11.55-25.46,23.14c-1.25,1.15-3,2.61-1.35,4.4,1.26,1.41,3.08.58,4.42-.64,2.59-2.34,5.12-4.74,7.7-7.09,11.4-10.36,20.91-19.11,32.36-29.43a30.67,30.67,0,0,0,3.25-3.41"/><path d="M1030,177.31a2.11,2.11,0,0,1-.07-2.94c2-2.16,4.21-4.07,6.38-6,11.58-10.47,23.14-21,34.79-31.33,1.48-1.32,3.58-3.83,5.35-1.84,2,2.21-1.1,4.21-2.63,5.6q-19.77,18.09-39.68,36c-2.71,2.45-4.14.55-4.14.55"/><path d="M558.68,118.59a6,6,0,0,1-2.87-.31,3.05,3.05,0,0,1-1.32-2.32,3,3,0,0,1,1.3-2.17,5,5,0,0,1,3.21-.68c13,.17,28.16.11,41.15.37h1.3c1.75,0,3.35.8,3.32,2.64s-2.07,2.29-3.21,2.33c-7.36.21-14.72.1-22.08.1"/><path d="M558.66,140.39c-1.95-.07-5.35.38-5.35-2.6s3.3-2.43,5.25-2.45c9.52-.1,19,0,28.56.08q7.14,0,14.29.1c1.68,0,3.39.75,3.39,2.53,0,1.54-2.16,2-3.34,2.08-7.46.19-14.92.09-22.38.09"/><path d="M557,129.44c-1.71,0-3.53-.17-3.58-2.53s1.78-2.62,3.49-2.59c14.91.27,29.82.89,44.73.93,3.06,0,3,2.11,3,2.11,0,2.14-2.88,2.21-2.88,2.21"/><path d="M285,333.82c2.82-.15,3.73,1.71,2.93,4.28q-6.09,19.47-12.2,38.92-15.35,49-30.67,98c-1.33,4.25-2.62,8.52-3.93,12.78-.58,1.86-1.55,3.31-3.56,2.53-2.23-.86-1.93-2.85-1.35-4.75q8.4-27.33,16.85-54.65c4.13-13.42,8.13-26.89,12.38-40.27,3.36-10.57,7.09-21,10.49-31.56,2.25-7,4.13-14.12,6.39-21.1.55-1.72,2-3.11,2.67-4.19"/></g></svg>